<svg width="24" height="24" viewBox="0 0 24 24" fill="none" xmlns="http://www.w3.org/2000/svg">
<g id="citation">
<path id="Vector" d="M5.32653 20.4094C3.85714 20.4094 2.59184 19.8992 1.53061 18.8788C0.510205 17.8175 0 16.5522 0 15.0828C0 14.3481 0.122449 13.6951 0.367347 13.1237C0.612245 12.5114 1 11.8175 1.53061 11.042L6.85714 3.14404L10.4694 5.5318L7.34694 10.3073C8.28572 10.6747 9.06122 11.2869 9.67347 12.1441C10.2857 12.9604 10.5918 13.94 10.5918 15.0828C10.5918 16.5522 10.0816 17.8175 9.06122 18.8788C8.04083 19.8992 6.79592 20.4094 5.32653 20.4094ZM18.7347 20.4094C17.2653 20.4094 16 19.8992 14.9388 18.8788C13.9184 17.8175 13.4082 16.5522 13.4082 15.0828C13.4082 14.3481 13.5306 13.6951 13.7755 13.1237C14.0204 12.5114 14.4082 11.8175 14.9388 11.042L20.2653 3.14404L23.8776 5.5318L20.7551 10.3073C21.6939 10.6747 22.4694 11.2869 23.0816 12.1441C23.6939 12.9604 24 13.94 24 15.0828C24 16.5522 23.4898 17.8175 22.4694 18.8788C21.449 19.8992 20.2041 20.4094 18.7347 20.4094Z" fill="#FCE5DB"/>
</g>
</svg>
